<svg width="129" height="129" viewBox="0 0 129 129" fill="none" xmlns="http://www.w3.org/2000/svg">
<path d="M14 96.4064C14 96.4064 19.2136 68.6467 18.8724 62.5193C18.5312 56.3919 14.0116 23.7136 38.1856 12.4767C62.3597 1.23976 96.2873 13.2082 102.076 25.8071C107.865 38.406 112.08 51.6569 112.932 55.0618C113.783 58.4667 108.463 61.3786 109.317 65.8042C110.171 70.2299 114 79.9299 114 81.9728C114 85.9011 110.385 86.7715 110.385 86.7715L105.254 86.6977L104.515 93.1186L101.246 95.8397L101.867 99.7434L98.1914 101.84C98.1914 101.84 98.9143 112.696 93.121 115.079C87.3276 117.462 76.0921 114.144 76.0921 114.144C76.0921 114.144 71.3845 119.723 70.0197 122.107C68.6548 124.491 34.1041 102.535 25.5926 100.492C17.081 98.4494 14 96.4064 14 96.4064Z" fill="#18A2E4" stroke="#9DD5F8" stroke-width="2.72244" stroke-miterlimit="10"/>
<path d="M73.5796 53.4364C73.5796 53.4364 69.4937 60.0756 73.5796 65.1822C77.6655 70.2888 80.2188 73.6908 80.2188 73.6908C80.2188 73.6908 82.9427 65.5191 80.2188 59.9006C77.4949 54.2822 74.09 52.2378 74.09 52.2378L73.5796 53.4364Z" fill="#00558F"/>
<path d="M102.507 96.4064C102.507 96.4064 95.5514 93.3991 93.6068 91.2997C91.6622 89.2004 91.48 87.8818 91.48 87.8818" stroke="#00558F" stroke-width="2.72244" stroke-miterlimit="10" stroke-linecap="round"/>
<path d="M94.4355 49.4507C94.4355 49.4507 106.323 61.6823 107.024 63.186C107.726 64.6896 107.726 65.1537 107.726 65.1537C107.726 65.1537 111.158 62.8606 110.494 60.5444C109.831 58.2282 100.748 52.737 100.748 52.737L94.4355 49.4507Z" fill="#00558F"/>
<path d="M100.699 63.7556C100.699 63.7556 101.824 68.2044 104.941 69.1803C107.452 69.9668 107.287 65.933 107.287 65.933L100.699 63.7556Z" fill="white"/>
<path d="M105.811 68.1797C106.015 68.1797 106.18 67.557 106.18 66.7888C106.18 66.0207 106.015 65.3979 105.811 65.3979C105.607 65.3979 105.442 66.0207 105.442 66.7888C105.442 67.557 105.607 68.1797 105.811 68.1797Z" fill="white" stroke="#1A252E" stroke-width="2.72244" stroke-miterlimit="10"/>
<path d="M98.3794 61.2483C98.3794 61.2483 104.994 64.7934 107.675 64.6749" stroke="#00558F" stroke-width="2.72244" stroke-miterlimit="10" stroke-linecap="round"/>
<path d="M81.4287 84.9339C81.4287 84.9339 67.9826 70.4107 68.4713 60.4432C68.9599 50.4757 72.3996 45.0496 72.3996 45.0496C72.3996 45.0496 82.367 49.9147 84.3044 56.6739" stroke="#9DD5F8" stroke-width="2.72244" stroke-linecap="round" stroke-linejoin="round"/>
<path d="M103.547 79.2661C103.547 79.2661 102.366 82.2749 102.908 83.2797C103.45 84.2845 103.966 81.3828 105.429 80.6931C106.892 80.0035 103.547 79.2661 103.547 79.2661Z" fill="#00558F"/>
<path d="M94.0332 17.2437C94.0332 17.2437 95.8564 18.6577 96.4419 19.2085L97.0203 19.7594" fill="#538F99"/>
<path d="M94.0332 17.2437C94.0332 17.2437 95.8564 18.6577 96.4419 19.2085L97.0203 19.7594" stroke="white" stroke-width="2.72244" stroke-miterlimit="10" stroke-linecap="round"/>
<path d="M68.0737 105.933C68.0737 105.933 71.8762 108.636 74.4252 111.159C76.9742 113.682 79.4089 116.653 79.4089 116.653" stroke="white" stroke-width="2.72244" stroke-miterlimit="10" stroke-linecap="round"/>
<path d="M30.16 24.5032C28.1445 27.7649 24.9174 33.901 23.5323 42.5022C22.6546 47.9898 22.6546 53.582 23.5323 59.0698" stroke="#9DD5F8" stroke-width="2.72244" stroke-linecap="round" stroke-linejoin="round"/>
<path d="M24.8076 72.4115C24.8076 72.4115 32.5167 71.5903 38.7814 72.1628C48.5118 73.052 52.3244 75.4998 51.3413 74.9822" stroke="#00558F" stroke-width="2.72244" stroke-miterlimit="10" stroke-linecap="round"/>
</svg>
